REM DIRINDEX 1\2,1\4,1\5,1\6,1\7,1\3\8,1\3\9,1\3\10
REM DIRNAME folder01,folder02,folder03,folder04,folder05,folder06,folder07,folder08,folder09,folder10
TITLE ""
FILE "DB4500_5th_2A_27.mp3" MP3
  TRACK 01 AUDIO
    TITLE "7:cjc113_1025"
    INDEX 01 00:00:00
  TRACK 02 AUDIO
    TITLE "8:cjc113_1026"
    INDEX 01 00:02:08
  TRACK 03 AUDIO
    TITLE "0:"
    INDEX 01 00:03:25
  TRACK 04 AUDIO
    TITLE "9:cjc113_1027"
    INDEX 01 00:03:47
  TRACK 05 AUDIO
    TITLE "0:"
    INDEX 01 00:04:54
  TRACK 06 AUDIO
    TITLE "10:cjc113_1028"
    INDEX 01 00:05:03
  TRACK 07 AUDIO
    TITLE "0:"
    INDEX 01 00:07:21
  TRACK 08 AUDIO
    TITLE "8:cjc113_1029"
    INDEX 01 00:07:66
  TRACK 09 AUDIO
    TITLE "0:"
    INDEX 01 00:09:02
  TRACK 10 AUDIO
    TITLE "9:cjc113_1030"
    INDEX 01 00:09:24
  TRACK 11 AUDIO
    TITLE "0:"
    INDEX 01 00:10:35
  TRACK 12 AUDIO
    TITLE "10:cjc113_1031"
    INDEX 01 00:10:59
  TRACK 13 AUDIO
    TITLE "0:"
    INDEX 01 00:13:73
  TRACK 14 AUDIO
    TITLE "8:cjc113_1032"
    INDEX 01 00:14:43
  TRACK 15 AUDIO
    TITLE "0:"
    INDEX 01 00:15:46
  TRACK 16 AUDIO
    TITLE "9:cjc113_1033"
    INDEX 01 00:15:68
  TRACK 17 AUDIO
    TITLE "0:"
    INDEX 01 00:17:14
  TRACK 18 AUDIO
    TITLE "10:cjc113_1034"
    INDEX 01 00:17:33
  TRACK 19 AUDIO
    TITLE "0:"
    INDEX 01 00:19:65
  TRACK 20 AUDIO
    TITLE "10:cjc113_1035"
    INDEX 01 00:20:16
  TRACK 21 AUDIO
    TITLE "0:"
    INDEX 01 00:22:27
  TRACK 22 AUDIO
    TITLE "8:cjc113_1036"
    INDEX 01 00:22:74
  TRACK 23 AUDIO
    TITLE "0:"
    INDEX 01 00:24:12
  TRACK 24 AUDIO
    TITLE "9:cjc113_1037"
    INDEX 01 00:24:31
  TRACK 25 AUDIO
    TITLE "0:"
    INDEX 01 00:25:37
  TRACK 26 AUDIO
    TITLE "10:cjc113_1038"
    INDEX 01 00:25:56
  TRACK 27 AUDIO
    TITLE "0:"
    INDEX 01 00:28:55
  TRACK 28 AUDIO
    TITLE "8:cjc113_1039"
    INDEX 01 00:29:29
  TRACK 29 AUDIO
    TITLE "0:"
    INDEX 01 00:30:50
  TRACK 30 AUDIO
    TITLE "9:cjc113_1040"
    INDEX 01 00:31:02
  TRACK 31 AUDIO
    TITLE "0:"
    INDEX 01 00:32:56
  TRACK 32 AUDIO
    TITLE "10:cjc113_1041"
    INDEX 01 00:33:05
  TRACK 33 AUDIO
    TITLE "0:"
    INDEX 01 00:36:74
  TRACK 34 AUDIO
    TITLE "8:cjc113_1042"
    INDEX 01 00:37:44
  TRACK 35 AUDIO
    TITLE "0:"
    INDEX 01 00:38:65
  TRACK 36 AUDIO
    TITLE "9:cjc113_1043"
    INDEX 01 00:39:11
  TRACK 37 AUDIO
    TITLE "0:"
    INDEX 01 00:40:40
  TRACK 38 AUDIO
    TITLE "10:cjc113_1044"
    INDEX 01 00:40:62
  TRACK 39 AUDIO
    TITLE "0:"
    INDEX 01 00:44:56
  TRACK 40 AUDIO
    TITLE "8:cjc113_1045"
    INDEX 01 00:45:30
  TRACK 41 AUDIO
    TITLE "0:"
    INDEX 01 00:46:47
  TRACK 42 AUDIO
    TITLE "9:cjc113_1046"
    INDEX 01 00:46:70
  TRACK 43 AUDIO
    TITLE "0:"
    INDEX 01 00:48:49
  TRACK 44 AUDIO
    TITLE "10:cjc113_1047"
    INDEX 01 00:48:73
  TRACK 45 AUDIO
    TITLE "0:"
    INDEX 01 00:52:37
  TRACK 46 AUDIO
    TITLE "10:cjc113_1048"
    INDEX 01 00:53:25
  TRACK 47 AUDIO
    TITLE "0:"
    INDEX 01 00:57:64
  TRACK 48 AUDIO
    TITLE "8:cjc113_1049"
    INDEX 01 00:58:36
  TRACK 49 AUDIO
    TITLE "0:"
    INDEX 01 00:59:47
  TRACK 50 AUDIO
    TITLE "9:cjc113_1050"
    INDEX 01 00:59:69
  TRACK 51 AUDIO
    TITLE "0:"
    INDEX 01 01:01:34
  TRACK 52 AUDIO
    TITLE "10:cjc113_1051"
    INDEX 01 01:01:58
  TRACK 53 AUDIO
    TITLE "0:"
    INDEX 01 01:04:62
  TRACK 54 AUDIO
    TITLE "8:cjc113_1052"
    INDEX 01 01:05:34
  TRACK 55 AUDIO
    TITLE "0:"
    INDEX 01 01:06:59
  TRACK 56 AUDIO
    TITLE "9:cjc113_1053"
    INDEX 01 01:07:08
  TRACK 57 AUDIO
    TITLE "0:"
    INDEX 01 01:08:29
  TRACK 58 AUDIO
    TITLE "10:cjc113_1054"
    INDEX 01 01:08:52
  TRACK 59 AUDIO
    TITLE "0:"
    INDEX 01 01:11:72
